# xmcd
#
# Track frame offsets:
#	150
#	49455
#	101918
#	175251
#
# Disc length: 3225 seconds
#
# Revision: 1
# Processed by: cddbd v1.5.2PL0 Copyright (c) Steve Scherf et al.
# Submitted via: EZCDAudioConverter 8.0.2.1
#
DISCID=350c9704
DTITLE=Various Artist - Liên Khúc Quê Hương
DYEAR=2007
DGENRE=Ethnic
TTITLE0=Như Quỳnh, Tâm Đoan, Quang Lê - LK Mưa
TTITLE1=Mạnh Quỳnh, Mai Quốc Huy, Hương Thủy - LK Lính
TTITLE2=Như Quỳnh, Tâm Đoan, Quang Lê, Hương Thủy - LK Chồng xa
TTITLE3=Tâm Đoan, Mai Quốc Huy - LK Nghèo
EXTD=
EXTT0=
EXTT1=
EXTT2=
EXTT3=
PLAYORDER=
